ffmpeg started on 2025-07-19 at 13:59:43
Report written to "D:\Convert\FFMetrics\reports\ssim_report-6.txt"
Log level: 32
Command line:
ffmpeg -hide_banner -nostdin -i "G:\\\xc0\xed\xe8\xec\xe5\\\xce\xed\xe3\xee\xe8\xed\xe3\xe8\\!_07_\xcb\xe5\xf2\xee_2017\\\xd1\xe5\xec\xfc - \xe2\xe5\xf0\xed\xee, \xf2\xf0\xe8 - \xed\xe5\xe2\xe5\xf0\xed\xee\\[AniDub]_Nana_Maru_San_Batsu_[02]_[720p_x264_Aac]_[MVO]_HEVC.mkv" -i "G:\\\xc0\xed\xe8\xec\xe5\\\xce\xed\xe3\xee\xe8\xed\xe3\xe8\\!_07_\xcb\xe5\xf2\xee_2017\\\xd1\xe5\xec\xfc - \xe2\xe5\xf0\xed\xee, \xf2\xf0\xe8 - \xed\xe5\xe2\xe5\xf0\xed\xee\\[AniDub]_Nana_Maru_San_Batsu_[02]_[720p_x264_Aac]_[MVO].mp4" -lavfi "[0:v]settb=AVTB,setpts=PTS-STARTPTS,format=pix_fmts=yuv420p10,fps=24000/1001,scale=1280:720:flags=bicubic[main];[1:v]settb=AVTB,setpts=PTS-STARTPTS,format=pix_fmts=yuv420p,fps=24000/1001,scale=1280:720:flags=bicubic[ref];[main][ref]ssim=eof_action=endall:stats_file='D\\:/Convert/FFMetrics/logs/ssim_logfile-6.txt'" -f null -
Input #0, matroska,webm, from 'G:\Аниме\Онгоинги\!_07_Лето_2017\Семь - верно, три - неверно\[AniDub]_Nana_Maru_San_Batsu_[02]_[720p_x264_Aac]_[MVO]_HEVC.mkv':
  Metadata:
    COMPATIBLE_BRANDS: isom
    MAJOR_BRAND     : isom
    MINOR_VERSION   : 1
    ENCODER         : Lavf61.7.100
  Duration: 00:23:00.82, start: -0.021000, bitrate: 677 kb/s
  Stream #0:0: Video: hevc (Main 10), yuv420p10le(tv, bt709, progressive), 1280x720 [SAR 1:1 DAR 16:9], 23.98 fps, 23.98 tbr, 1k tbn (default)
      Metadata:
        HANDLER_NAME    : 264
        VENDOR_ID       : [0][0][0][0]
        ENCODER         : Lavc61.19.100 libx265
        BPS             : 481196
        DURATION        : 00:22:59.711708333
        NUMBER_OF_FRAMES: 33080
        NUMBER_OF_BYTES : 82989028
        _STATISTICS_WRITING_APP: mkvpropedit v66.0.0 ('Josie') 64-bit
        _STATISTICS_WRITING_DATE_UTC: 2025-07-19 09:15:30
        _STATISTICS_TAGS: BPS DURATION NUMBER_OF_FRAMES NUMBER_OF_BYTES
  Stream #0:1(eng): Audio: aac (LC), 48000 Hz, stereo, fltp (default)
      Metadata:
        HANDLER_NAME    : GPAC ISO Audio Handler
        VENDOR_ID       : [0][0][0][0]
        ENCODER         : Lavc61.19.100 aac
        BPS             : 192582
        DURATION        : 00:23:00.800000000
        NUMBER_OF_FRAMES: 64726
        NUMBER_OF_BYTES : 33239754
        _STATISTICS_WRITING_APP: mkvpropedit v66.0.0 ('Josie') 64-bit
        _STATISTICS_WRITING_DATE_UTC: 2025-07-19 09:15:30
        _STATISTICS_TAGS: BPS DURATION NUMBER_OF_FRAMES NUMBER_OF_BYTES
Input #1, mov,mp4,m4a,3gp,3g2,mj2, from 'G:\Аниме\Онгоинги\!_07_Лето_2017\Семь - верно, три - неверно\[AniDub]_Nana_Maru_San_Batsu_[02]_[720p_x264_Aac]_[MVO].mp4':
  Metadata:
    major_brand     : isom
    minor_version   : 1
    compatible_brands: isom
    creation_time   : 2017-12-08T22:12:48.000000Z
    encoder         : Yamb 2.1.0.0 [http://yamb.unite-video.com]
  Duration: 00:23:00.80, start: 0.000000, bitrate: 1952 kb/s
  Stream #1:0[0x1](und): Video: h264 (High) (avc1 / 0x31637661), yuv420p(tv, bt709, progressive), 1280x720 [SAR 1:1 DAR 16:9], 1758 kb/s, 23.98 fps, 23.98 tbr, 24k tbn (default)
      Metadata:
        creation_time   : 2017-07-12T01:56:10.000000Z
        handler_name    : 264
        vendor_id       : [0][0][0][0]
  Stream #1:1[0x2](eng): Audio: aac (LC) (mp4a / 0x6134706D), 48000 Hz, stereo, fltp, 192 kb/s (default)
      Metadata:
        creation_time   : 2017-12-08T22:12:50.000000Z
        handler_name    : GPAC ISO Audio Handler
        vendor_id       : [0][0][0][0]
Stream mapping:
  Stream #0:0 (hevc) -> settb:default
  Stream #1:0 (h264) -> settb:default
  ssim:default -> Stream #0:0 (wrapped_avframe)
  Stream #0:1 -> #0:1 (aac (native) -> pcm_s16le (native))
Output #0, null, to 'pipe:':
  Metadata:
    COMPATIBLE_BRANDS: isom
    MAJOR_BRAND     : isom
    MINOR_VERSION   : 1
    encoder         : Lavf61.7.100
  Stream #0:0: Video: wrapped_avframe, yuv420p10le(tv, bt709, progressive), 1280x720 [SAR 1:1 DAR 16:9], q=2-31, 200 kb/s, 23.98 fps, 23.98 tbn
      Metadata:
        encoder         : Lavc61.19.100 wrapped_avframe
  Stream #0:1(eng): Audio: pcm_s16le, 48000 Hz, stereo, s16, 1536 kb/s (default)
      Metadata:
        HANDLER_NAME    : GPAC ISO Audio Handler
        VENDOR_ID       : [0][0][0][0]
        _STATISTICS_TAGS: BPS DURATION NUMBER_OF_FRAMES NUMBER_OF_BYTES
        BPS             : 192582
        DURATION        : 00:23:00.800000000
        NUMBER_OF_FRAMES: 64726
        NUMBER_OF_BYTES : 33239754
        _STATISTICS_WRITING_APP: mkvpropedit v66.0.0 ('Josie') 64-bit
        _STATISTICS_WRITING_DATE_UTC: 2025-07-19 09:15:30
        encoder         : Lavc61.19.100 pcm_s16le
frame=  447 fps=0.0 q=-0.0 size=N/A time=00:00:18.64 bitrate=N/A speed=35.8x    frame=  968 fps=929 q=-0.0 size=N/A time=00:00:40.37 bitrate=N/A speed=38.7x    frame= 1442 fps=926 q=-0.0 size=N/A time=00:01:00.14 bitrate=N/A speed=38.6x    frame= 1993 fps=966 q=-0.0 size=N/A time=00:01:23.12 bitrate=N/A speed=40.3x    frame= 2563 fps=993 q=-0.0 size=N/A time=00:01:46.89 bitrate=N/A speed=41.4x    frame= 2948 fps=950 q=-0.0 size=N/A time=00:02:02.95 bitrate=N/A speed=39.6x    frame= 3296 fps=911 q=-0.0 size=N/A time=00:02:17.47 bitrate=N/A speed=  38x    frame= 3678 fps=892 q=-0.0 size=N/A time=00:02:33.40 bitrate=N/A speed=37.2x    frame= 3982 fps=857 q=-0.0 size=N/A time=00:02:46.08 bitrate=N/A speed=35.8x    frame= 4382 fps=848 q=-0.0 size=N/A time=00:03:02.76 bitrate=N/A speed=35.4x    frame= 4669 fps=823 q=-0.0 size=N/A time=00:03:14.73 bitrate=N/A speed=34.3x    frame= 5205 fps=840 q=-0.0 size=N/A time=00:03:37.09 bitrate=N/A speed=  35x    frame= 5715 fps=853 q=-0.0 size=N/A time=00:03:58.36 bitrate=N/A speed=35.6x    frame= 6266 fps=867 q=-0.0 size=N/A time=00:04:21.34 bitrate=N/A speed=36.2x    frame= 6766 fps=873 q=-0.0 size=N/A time=00:04:42.19 bitrate=N/A speed=36.4x    frame= 7340 fps=887 q=-0.0 size=N/A time=00:05:06.13 bitrate=N/A speed=  37x    frame= 7948 fps=905 q=-0.0 size=N/A time=00:05:31.49 bitrate=N/A speed=37.8x    frame= 8435 fps=907 q=-0.0 size=N/A time=00:05:51.80 bitrate=N/A speed=37.8x    frame= 9062 fps=922 q=-0.0 size=N/A time=00:06:17.96 bitrate=N/A speed=38.5x    frame= 9591 fps=927 q=-0.0 size=N/A time=00:06:40.02 bitrate=N/A speed=38.7x    frame=10131 fps=932 q=-0.0 size=N/A time=00:07:02.54 bitrate=N/A speed=38.9x    frame=10660 fps=936 q=-0.0 size=N/A time=00:07:24.61 bitrate=N/A speed=  39x    frame=11251 fps=945 q=-0.0 size=N/A time=00:07:49.26 bitrate=N/A speed=39.4x    frame=11793 fps=949 q=-0.0 size=N/A time=00:08:11.86 bitrate=N/A speed=39.6x    frame=12356 fps=954 q=-0.0 size=N/A time=00:08:35.34 bitrate=N/A speed=39.8x    frame=12828 fps=953 q=-0.0 size=N/A time=00:08:55.03 bitrate=N/A speed=39.8x    frame=13433 fps=961 q=-0.0 size=N/A time=00:09:20.26 bitrate=N/A speed=40.1x    frame=13916 fps=961 q=-0.0 size=N/A time=00:09:40.41 bitrate=N/A speed=40.1x    frame=14468 fps=964 q=-0.0 size=N/A time=00:10:03.43 bitrate=N/A speed=40.2x    frame=15062 fps=971 q=-0.0 size=N/A time=00:10:28.21 bitrate=N/A speed=40.5x    frame=15637 fps=975 q=-0.0 size=N/A time=00:10:52.19 bitrate=N/A speed=40.7x    frame=16180 fps=977 q=-0.0 size=N/A time=00:11:14.84 bitrate=N/A speed=40.8x    frame=16682 fps=977 q=-0.0 size=N/A time=00:11:35.77 bitrate=N/A speed=40.8x    frame=17273 fps=982 q=-0.0 size=N/A time=00:12:00.42 bitrate=N/A speed=  41x    frame=17903 fps=990 q=-0.0 size=N/A time=00:12:26.70 bitrate=N/A speed=41.3x    frame=18442 fps=991 q=-0.0 size=N/A time=00:12:49.18 bitrate=N/A speed=41.3x    frame=19050 fps=996 q=-0.0 size=N/A time=00:13:14.54 bitrate=N/A speed=41.5x    frame=19544 fps=995 q=-0.0 size=N/A time=00:13:35.14 bitrate=N/A speed=41.5x    frame=20038 fps=994 q=-0.0 size=N/A time=00:13:55.75 bitrate=N/A speed=41.4x    frame=20579 fps=996 q=-0.0 size=N/A time=00:14:18.31 bitrate=N/A speed=41.5x    frame=21178 fps=999 q=-0.0 size=N/A time=00:14:43.29 bitrate=N/A speed=41.7x    frame=21745 fps=1002 q=-0.0 size=N/A time=00:15:06.94 bitrate=N/A speed=41.8x    frame=22261 fps=1002 q=-0.0 size=N/A time=00:15:28.46 bitrate=N/A speed=41.8x    frame=22745 fps=1000 q=-0.0 size=N/A time=00:15:48.65 bitrate=N/A speed=41.7x    frame=23301 fps=1002 q=-0.0 size=N/A time=00:16:11.84 bitrate=N/A speed=41.8x    frame=23856 fps=1004 q=-0.0 size=N/A time=00:16:34.99 bitrate=N/A speed=41.9x    frame=24370 fps=1003 q=-0.0 size=N/A time=00:16:56.43 bitrate=N/A speed=41.8x    frame=24903 fps=1004 q=-0.0 size=N/A time=00:17:18.66 bitrate=N/A speed=41.9x    frame=25473 fps=1006 q=-0.0 size=N/A time=00:17:42.43 bitrate=N/A speed=  42x    frame=26063 fps=1009 q=-0.0 size=N/A time=00:18:07.04 bitrate=N/A speed=42.1x    frame=26640 fps=1011 q=-0.0 size=N/A time=00:18:31.11 bitrate=N/A speed=42.2x    frame=27086 fps=1008 q=-0.0 size=N/A time=00:18:49.71 bitrate=N/A speed=42.1x    frame=27500 fps=1004 q=-0.0 size=N/A time=00:19:06.97 bitrate=N/A speed=41.9x    frame=28021 fps=1005 q=-0.0 size=N/A time=00:19:28.70 bitrate=N/A speed=41.9x    frame=28597 fps=1006 q=-0.0 size=N/A time=00:19:52.73 bitrate=N/A speed=  42x    frame=29162 fps=1008 q=-0.0 size=N/A time=00:20:16.29 bitrate=N/A speed=42.1x    frame=29725 fps=1009 q=-0.0 size=N/A time=00:20:39.78 bitrate=N/A speed=42.1x    frame=30244 fps=1009 q=-0.0 size=N/A time=00:21:01.42 bitrate=N/A speed=42.1x    frame=30628 fps=1004 q=-0.0 size=N/A time=00:21:17.44 bitrate=N/A speed=41.9x    frame=30996 fps=1000 q=-0.0 size=N/A time=00:21:32.79 bitrate=N/A speed=41.7x    frame=31311 fps=993 q=-0.0 size=N/A time=00:21:45.92 bitrate=N/A speed=41.4x    frame=31605 fps=987 q=-0.0 size=N/A time=00:21:58.19 bitrate=N/A speed=41.2x    frame=31894 fps=980 q=-0.0 size=N/A time=00:22:10.24 bitrate=N/A speed=40.9x    frame=32195 fps=973 q=-0.0 size=N/A time=00:22:22.79 bitrate=N/A speed=40.6x    frame=32675 fps=973 q=-0.0 size=N/A time=00:22:42.81 bitrate=N/A speed=40.6x    [Parsed_ssim_10 @ 00000205eb5bc540] SSIM Y:0.992587 (21.299976) U:0.993784 (22.065022) V:0.993554 (21.906867) All:0.992948 (21.516597)
[out#0/null @ 00000205df234ec0] video:14214KiB audio:258904KiB subtitle:0KiB other streams:0KiB global headers:0KiB muxing overhead: unknown
frame=33080 fps=974 q=-0.0 Lsize=N/A time=00:22:59.71 bitrate=N/A speed=40.6x    
